<?xml version="1.0" encoding="UTF-8"?>
<svg width="516px" height="162px" viewBox="0 0 516 162" version="1.1" xmlns="http://www.w3.org/2000/svg" xmlns:xlink="http://www.w3.org/1999/xlink">
    <!-- Generator: Sketch 53.1 (72631) - https://sketchapp.com -->
    <title>logo</title>
    <desc>Created with Sketch.</desc>
    <g id="Page-1" stroke="none" stroke-width="1" fill="none" fill-rule="evenodd">
        <g id="logo" fill="#222222" fill-rule="nonzero">
            <path d="M222.32,94.94 C222.176184,99.2520927 221.418567,103.521684 220.07,107.62 C218.620363,111.982035 216.505411,116.09388 213.8,119.81 C210.688497,124.037568 207.033735,127.836907 202.93,131.11 C198.048685,135.0053 192.696652,138.270947 187,140.83 C172.626667,147.496667 158.873333,148.973333 145.74,145.26 C132.606667,141.546667 121.633333,132.056667 112.82,116.79 C111.866667,120.023333 111.02,123.38 110.28,126.86 C109.558746,130.26878 108.623562,133.628761 107.48,136.92 C106.382859,140.089359 104.804374,143.070941 102.8,145.76 C100.719696,148.47004 97.9932843,150.615414 94.87,152 C91.13,153.726667 87.7966667,154.226667 84.87,153.5 C82.0326234,152.831059 79.3961119,151.493947 77.18,149.6 C75.0165006,147.742397 73.1632102,145.551531 71.69,143.11 C70.3992063,141.015905 69.224112,138.852663 68.17,136.63 C64.9566667,129.763333 61.9,122.85 59,115.89 C56.1,108.93 53.1866667,102.216667 50.26,95.75 C46.4066667,87.4166667 42.9566667,80.3333333 39.91,74.5 C37.4460071,69.4999269 34.2584112,64.8903803 30.45,60.82 C27.5549377,57.717483 23.7481018,55.6161936 19.58,54.82 C15.58,54.1533333 10.76,54.8566667 5.12,56.93 L3.4,57.73 C2.73520202,58.0070757 2.11513375,58.3811386 1.56,58.84 C1.44935944,58.9116402 1.31150493,58.9271849 1.18768903,58.8819822 C1.06387313,58.8367796 0.968459354,58.7360735 0.93,58.61 C0.450117027,57.3959363 0.166568642,56.1132174 0.09,54.81 C-0.062933266,53.0193467 0.0278958512,51.2162205 0.36,49.45 C0.73767089,47.4960364 1.51379929,45.6408172 2.64,44 C3.88900938,42.1792494 5.62033463,40.7422494 7.64,39.85 C18.42,34.8633333 27.64,34.53 35.3,38.85 C42.96,43.17 50.05,52.3533333 56.57,66.4 C58.9633333,71.5733333 61.2033333,77.08 63.29,82.92 C65.3766667,88.76 67.4133333,94.5766667 69.4,100.37 C71.4,106.17 73.4,111.88 75.4,117.5 C77.4,123.12 79.5233333,128.373333 81.77,133.26 C82.7732659,135.624355 84.139741,137.817463 85.82,139.76 C86.9266366,141.170112 88.8815082,141.590514 90.47,140.76 C92.6233333,139.766667 94.6233333,137.79 96.47,134.83 C98.4049503,131.739491 100.103137,128.506919 101.55,125.16 C103.076667,121.666667 104.41,118.306667 105.55,115.08 C106.368759,112.605729 107.347489,110.187297 108.48,107.84 L104.93,95.35 C103.39,89.9566667 101.723333,84.4 99.93,78.68 C98.1366667,72.96 96.44,67.5933333 94.84,62.58 C93.6701695,58.7801546 92.2914039,55.0478062 90.71,51.4 C90.3766667,50.68 89.4866667,49.04 88.04,46.48 C86.5310173,43.8478326 84.5276273,41.5320497 82.14,39.66 C81.7530331,39.2701125 81.264574,38.9964368 80.73,38.87 C80.2843845,38.8142688 79.8839669,38.5703781 79.63,38.2 C79.23,37.34 79.8966667,36.51 81.63,35.71 C84.1022504,34.4597946 86.8661301,33.900109 89.63,34.09 C92.126192,34.3545959 94.5039073,35.2911668 96.51,36.8 C98.7553614,38.4956959 100.687665,40.5701308 102.22,42.93 C104.033893,45.6474795 105.632115,48.5028811 107,51.47 C108.843749,55.555183 110.46283,59.7380886 111.85,64 C113.436667,68.76 114.956667,73.5533333 116.41,78.38 C117.863333,83.2066667 119.316667,87.8566667 120.77,92.33 C121.961579,96.1520071 123.373953,99.9016437 125,103.56 C127.228422,108.437904 130.049701,113.022481 133.4,117.21 C136.465575,121.105257 140.311036,124.317188 144.69,126.64 C149.12132,128.903198 154.024205,130.088662 159,130.1 C164.273333,130.186667 170,128.803333 176.18,125.95 C183.08,122.763333 188.44,119.456667 192.26,116.03 C195.738382,112.985321 198.76842,109.463744 201.26,105.57 C203.372397,102.199363 205.087162,98.5953344 206.37,94.83 C207.657105,91.1157559 209.204268,87.4967981 211,84 C211.476707,83.2476208 212.320272,82.8086617 213.21,82.85 C214.477228,82.8290165 215.71667,83.2222672 216.74,83.97 C218.173881,84.9916495 219.365386,86.3163036 220.23,87.85 C221.426399,90.0363771 222.139146,92.454259 222.32,94.94 Z" id="Path"></path>
            <path d="M119.73,71 C121.396667,70.5066667 123.283333,69.9066667 125.39,69.2 C127.435002,68.5248654 129.559861,68.1214111 131.71,68 C133.760633,67.8627596 135.810086,68.2844007 137.64,69.22 C139.486667,70.16 140.913333,72.05 141.92,74.89 C143.914221,71.2983715 146.335097,67.9608521 149.13,64.95 C151.847132,61.8502709 155.371251,59.5654785 159.31,58.35 C159.763333,58.2166667 160.456667,58.0533333 161.39,57.86 C162.458026,57.6810204 163.554289,57.7844415 164.57,58.16 C166.005189,58.7537785 167.218564,59.781826 168.04,61.1 C169.436385,63.3897137 170.357993,65.9368865 170.75,68.59 C171.463333,72.6766667 172.253333,76.7366667 173.12,80.77 C173.846667,84.3566667 174.743333,88.22 175.81,92.36 C176.876667,96.5 177.94,100.38 179,104 C179.921692,107.331279 181.129518,110.576683 182.61,113.7 C183.558905,115.631468 184.610406,117.510818 185.76,119.33 C186.403766,120.399089 187.191101,121.374846 188.1,122.23 C188.682117,122.669103 189.120667,123.27124 189.36,123.96 C189.673333,125.02 189.146667,125.753333 187.78,126.16 C186.076316,126.620553 184.296161,126.726069 182.55,126.47 C180.425838,126.188278 178.373547,125.509834 176.5,124.47 C174.289357,123.225533 172.332098,121.576958 170.73,119.61 C168.82423,117.257385 167.431121,114.532479 166.64,111.61 L160.87,92 C159.43,87.14 158.276667,83.52 157.41,81.14 C156.893051,79.5778362 156.223135,78.0705257 155.41,76.64 C154.983333,76.0266667 154.54,75.7866667 154.08,75.92 C152.972044,76.4592487 152.062267,77.3340344 151.48,78.42 C150.506667,79.8666667 149.536667,81.4733333 148.57,83.24 C147.603333,85.0066667 146.69,86.8033333 145.83,88.63 C144.963333,90.4566667 144.34,91.8366667 143.96,92.77 C144.44,97.75 145.04,102.566667 145.76,107.22 C146.164379,110.246971 146.725129,113.250988 147.44,116.22 C147.744359,117.17234 148.139508,118.093237 148.62,118.97 C149.179092,120.039 150.001707,120.947663 151.01,121.61 C149.712665,122.954031 148.068641,123.912757 146.26,124.38 C144.537327,124.819176 142.741004,124.887347 140.99,124.58 C139.187168,124.236478 137.53685,123.337893 136.27,122.01 C134.78929,120.467206 133.785735,118.529546 133.38,116.43 C132.813333,113.956667 132.106667,110.45 131.26,105.91 C130.413333,101.37 129.413333,96.7033333 128.26,91.91 C127.195356,87.4821156 125.90026,83.1128353 124.38,78.82 C122.993333,74.94 121.443333,72.3333333 119.73,71 Z" id="Path"></path>
            <path d="M193.79,51.76 C194.85,51.42 195.85,51.14 196.79,50.9 C197.73,50.66 198.72,50.46 199.79,50.27 C202.151615,49.8741089 204.546661,49.7133226 206.94,49.79 C206.7,47.4233333 206.306667,43.8766667 205.76,39.15 C205.213333,34.4233333 204.48,29.57 203.56,24.59 C202.64,19.61 201.573333,14.9433333 200.36,10.59 C199.146667,6.23666667 197.68,3.23666667 195.96,1.59 C199.442291,0.915837525 202.983171,0.590893934 206.53,0.62 C209.794641,0.914345124 212.958657,1.90310001 215.81,3.52 C216.820305,4.27222897 217.704665,5.18021645 218.43,6.21 C219.096667,7.22333333 219.78,8.43333333 220.48,9.84 C221.264835,11.4701018 221.797575,13.2099355 222.06,15 C222.113333,15.3133333 222.2,17.0233333 222.32,20.13 C222.44,23.2366667 222.58,27.1933333 222.74,32 C222.9,36.7866667 223.053333,42.02 223.2,47.7 C223.346667,53.38 223.566667,59.0033333 223.86,64.57 C224.153333,70.1433333 224.486667,75.3033333 224.86,80.05 C225.233333,84.7966667 225.666667,88.5766667 226.16,91.39 C226.266667,92.0166667 226.73,94.0666667 227.55,97.54 C228.372478,101.013826 229.782794,104.321472 231.72,107.32 C232.007207,107.822189 232.407875,108.250254 232.89,108.57 C233.44,108.96 233.74,109.31 233.79,109.62 C233.97,110.71 233.05,111.43 231.02,111.77 C227.966985,112.310831 224.823774,111.628305 222.27,109.87 C219.683252,108.191917 217.442705,106.032845 215.67,103.51 C213.938703,104.301252 212.166149,104.998923 210.36,105.6 C208.359641,106.26405 206.309925,106.768955 204.23,107.11 C196.743333,108.37 190.58,107.186667 185.74,103.56 C180.9,99.9333333 177.843333,94.3866667 176.57,86.92 C175.941962,83.1818508 175.911583,79.3676785 176.48,75.62 C177.00317,71.9907372 178.03322,68.4528836 179.54,65.11 C180.939364,61.9927483 182.917712,59.1694458 185.37,56.79 C187.746491,54.4802868 190.629807,52.7578308 193.79,51.76 L193.79,51.76 Z M211.67,93.76 C211.687352,93.944592 211.629687,94.1284006 211.51,94.27 C211.304779,92.6914994 211.197906,91.1017655 211.19,89.51 C211.03,87.61 210.793333,85 210.48,81.68 C210.166667,78.36 209.706667,73.9433333 209.1,68.43 C208.293333,66.4833333 207.2,65.4633333 205.82,65.37 C204.822627,65.2674819 203.817373,65.2674819 202.82,65.37 C199.865245,65.7174857 197.080561,66.9357851 194.82,68.87 C193.019479,70.5443807 191.682829,72.6561507 190.94,75 C190.211661,77.2286613 189.873365,79.5662918 189.94,81.91 C189.972188,83.8588157 190.135894,85.8032358 190.43,87.73 C191.343333,93.1966667 193.01,96.61 195.43,97.97 C197.630868,99.2987561 200.232356,99.8020413 202.77,99.39 C204.560475,99.1268441 206.315129,98.6605021 208,98 C208.947902,97.6236818 209.834332,97.1080016 210.63,96.47 C211.12578,96.1084307 211.479527,95.5848852 211.63,94.99 C211.703633,94.5942907 211.717118,94.1897343 211.67,93.79 L211.67,93.76 Z" id="Shape"></path>
            <path d="M274.56,62 C274.816964,64.4462449 274.445229,66.9175946 273.48,69.18 C272.415228,71.6808196 270.896251,73.9626758 269,75.91 C266.915353,78.0678748 264.42864,79.7970233 261.68,81 C258.625723,82.3585922 255.340368,83.1222335 252,83.25 C249.829563,83.3854224 247.651503,83.1693047 245.55,82.61 C245.989131,84.5176664 246.846435,86.3040027 248.06,87.84 C248.99819,89.0036555 250.131776,89.9951203 251.41,90.77 C252.465298,91.3854614 253.624438,91.8023453 254.83,92 L257.71,92.46 C259.740992,92.7114977 261.799864,92.3234929 263.6,91.35 C265.212451,90.4598294 266.718743,89.3896573 268.09,88.16 C269.244561,87.1365773 270.305439,86.012113 271.26,84.8 C272.08,83.73 272.73,83.18 273.2,83.16 C273.83,83.16 274.2,83.67 274.2,84.78 C274.375443,87.3121956 273.756711,89.836061 272.43,92 C271.051237,94.1754623 269.236369,96.0414058 267.1,97.48 C264.746377,99.0736377 262.153884,100.282118 259.42,101.06 C256.543409,101.906422 253.558483,102.327546 250.56,102.31 C243.746667,102.31 238.343333,100.35 234.35,96.43 C230.356667,92.51 228.023333,87.0733333 227.35,80.12 C226.896667,70.6333333 229.016667,62.7266667 233.71,56.4 C238.403333,50.0733333 245.02,46.7066667 253.56,46.3 C259.406667,46.02 264.29,47.0566667 268.21,49.41 C272.13,51.7633333 274.246667,55.96 274.56,62 Z M244.66,78.17 C246.213333,77.6233333 247.846667,76.99 249.56,76.27 C251.268608,75.5567081 252.86512,74.6001479 254.3,73.43 C255.692683,72.3127268 256.877484,70.9586694 257.8,69.43 C258.743037,67.7477764 259.160972,65.8217915 259,63.9 C258.948146,61.853089 258.317083,59.8628138 257.18,58.16 C256.216317,56.6218886 254.479973,55.7440916 252.67,55.88 C250.003333,56.0066667 247.86,57.5766667 246.24,60.59 C244.62,63.6033333 243.98,68.43 244.32,75.07 C244.340765,75.624597 244.407663,76.1765028 244.52,76.72 C244.605203,77.1887388 244.652025,77.6636472 244.66,78.14 L244.66,78.17 Z" id="Shape"></path>
            <path d="M300.57,85.9 C305.363333,90.3333333 309.07,93.7833333 311.69,96.25 C314.31,98.7166667 316.553333,100.843333 318.42,102.63 C320.286667,104.416667 322.2,106.126667 324.16,107.76 L332.07,114.33 C333.123333,115.19 333.086667,116.376667 331.96,117.89 C330.591001,119.610879 328.832715,120.981862 326.83,121.89 C324.492745,123.021688 321.9365,123.62918 319.34,123.67 C316.810606,123.804434 314.349861,122.820867 312.61,120.98 C310.638486,119.432416 308.909381,117.598823 307.48,115.54 C305.873333,113.293333 304.166667,110.803333 302.36,108.07 C300.553333,105.336667 298.6,102.356667 296.5,99.13 C294.188946,95.6048489 291.667717,92.2220603 288.95,89 C288.15,89.1066667 287.513333,89.7733333 287.04,91 C286.532067,92.3977666 286.238741,93.864395 286.17,95.35 C286.059181,96.9415611 286.116161,98.5403659 286.34,100.12 C286.385698,101.302257 286.917626,102.413155 287.81,103.19 C287.34008,103.363221 286.854476,103.490483 286.36,103.57 C284.93636,103.701424 283.50364,103.701424 282.08,103.57 C280.026667,103.436667 277.956667,102.313333 275.87,100.2 C273.761484,98.111374 272.70711,95.1833733 273,92.23 C273.306667,89.87 273.936667,86.22 274.89,81.28 C275.843333,76.34 276.686667,71.1966667 277.42,65.85 C278.153333,60.5166667 278.636667,55.43 278.87,50.59 C279.103333,45.75 278.58,42.27 277.3,40.15 C277.93,40.15 278.8,40.21 279.91,40.15 C281.02,40.09 282.21,40.15 283.47,40.26 C285.363333,40.38 287.176667,40.5733333 288.91,40.84 C290.479088,41.0519058 291.985488,41.5938007 293.33,42.43 C294.521804,43.19035 295.415269,44.3380817 295.86,45.68 C296.300666,47.4586217 296.138885,49.3331782 295.4,51.01 C298.140841,49.9259334 300.980982,49.1120723 303.88,48.58 C306.634008,48.0580881 309.441734,47.8767279 312.24,48.04 C316.506667,48.3133333 319.763333,49.5133333 322.01,51.64 C324.256667,53.7666667 325.253333,57.1366667 325,61.75 C324.846186,64.0252709 324.423236,66.274292 323.74,68.45 C322.977614,70.8147865 321.746434,73.0016606 320.12,74.88 C318.033987,77.2128735 315.577736,79.1859833 312.85,80.72 C308.965454,82.9049407 304.845843,84.6426919 300.57,85.9 Z M289.57,79.72 C289.476667,81.14 289.983333,81.8866667 291.09,81.96 C292.684559,81.9172971 294.250754,81.5283075 295.68,80.82 C297.782351,79.9092237 299.772251,78.7582358 301.61,77.39 C303.588052,75.9555125 305.375716,74.2753773 306.93,72.39 C308.342671,70.8123842 309.218046,68.8270323 309.43,66.72 C309.59,64.1933333 309.096667,62.6133333 307.95,61.98 C306.604295,61.3002278 305.126773,60.9214633 303.62,60.87 C300.286667,60.6566667 297.54,62.0666667 295.38,65.1 C293.22,68.1333333 291.273333,73.0066667 289.54,79.72 L289.57,79.72 Z" id="Shape"></path>
            <path d="M337.39,1.55431223e-15 C340.185149,0.431753374 342.938437,1.10083914 345.62,2 C348.199406,2.8401173 350.605018,4.14118081 352.72,5.84 C354.751469,7.46485203 356.329041,9.58665213 357.3,12 C358.316657,14.84209 358.558266,17.9036207 358,20.87 C357.953333,21.1833333 357.513333,22.7566667 356.68,25.59 C355.846667,28.4233333 354.796667,31.9066667 353.53,36.04 L349.27,50 C347.69,55.1266667 346.196667,60.2233333 344.79,65.29 C343.383333,70.3566667 342.143333,75.0933333 341.07,79.5 C340.003333,83.9 339.256667,87.51 338.83,90.33 C338.71,91.1166667 338.463333,93.28 338.09,96.82 C337.702041,100.288017 337.983813,103.798273 338.92,107.16 C339.19888,107.722356 339.533918,108.255067 339.92,108.75 C340.282089,109.169598 340.458853,109.717927 340.41,110.27 C339.95,111.163333 338.86,111.48 337.14,111.22 C334.464506,110.907729 331.95208,109.77207 329.95,107.97 C328.114117,106.229423 326.713102,104.081657 325.86,101.7 C324.938675,99.1923207 324.405862,96.5586051 324.28,93.89 C324.132843,91.1804413 324.263524,88.4629352 324.67,85.78 C325.751004,78.6052871 327.192832,71.4895991 328.99,64.46 C330.75,57.6066667 332.4,50.69 333.94,43.71 C335.482334,36.708976 336.637421,29.628226 337.4,22.5 C338.151933,15.0186782 338.148583,7.4806505 337.39,1.55431223e-15 Z" id="Path"></path>
            <path d="M371.71,102 C368.879649,104.725076 365.457011,106.758123 361.71,107.94 C358.024783,109.240549 354.051692,109.496654 350.23,108.68 C346.613144,107.970984 343.348475,106.043947 340.98,103.22 C338.673333,100.44 337.966667,97.04 338.86,93.02 C339.426537,90.5076341 340.612533,88.1768928 342.31,86.24 C344.108263,84.1535136 346.26565,82.4059291 348.68,81.08 C354.247286,78.0828089 360.704844,77.1815892 366.88,78.54 C367.547286,78.6757271 368.193143,78.9011043 368.8,79.21 C369.331365,79.4951329 369.900307,79.7038573 370.49,79.83 C371.263333,80.0033333 371.77,79.5466667 372.01,78.46 C372.562813,76.577135 372.032137,74.542878 370.63,73.17 C369.095269,71.7273683 367.251921,70.653507 365.24,70.03 C363.011105,69.2963678 360.693666,68.865842 358.35,68.75 C356.40275,68.6035438 354.44725,68.6035438 352.5,68.75 C351.803336,68.9249358 351.075475,68.6141635 350.72,67.99 C350.216575,67.2944785 350.054828,66.4085434 350.28,65.58 C350.60241,64.1379322 351.074989,62.7336031 351.69,61.39 C352.32643,59.9855103 353.265507,58.7390992 354.44,57.74 C355.77125,56.6487421 357.357248,55.9125086 359.05,55.6 C361.380658,55.2179164 363.765624,55.3303505 366.05,55.93 C368.446287,56.4977016 370.812593,57.1852319 373.14,57.99 C376.079241,58.9893634 378.835525,60.4620835 381.3,62.35 C383.83429,64.2598412 385.908432,66.7132755 387.37,69.53 C388.843333,72.37 389.12,75.8766667 388.2,80.05 C387.733333,81.3833333 387.023333,83.86 386.07,87.48 C385.085315,91.196679 384.330552,94.9704945 383.81,98.78 C383.278646,102.43792 383.071175,106.135599 383.19,109.83 C383.316667,113.263333 384.146667,115.556667 385.68,116.71 C385.551609,117.299041 385.342997,117.867678 385.06,118.4 C384.786667,118.906667 383.566667,118.906667 381.4,118.4 C380.46183,118.163182 379.560232,117.799851 378.72,117.32 C377.546517,116.635531 376.506456,115.744534 375.65,114.69 C374.509384,113.286694 373.613497,111.701145 373,110 C372.134298,107.422095 371.698482,104.719357 371.71,102 L371.71,102 Z M356.59,94.51 C356.315409,95.7473138 356.503974,97.042364 357.12,98.15 C357.79353,99.3786461 358.996637,100.227464 360.38,100.45 C362.143341,100.741014 363.949037,100.642025 365.67,100.16 C367.712862,99.7132046 369.586045,98.6933605 371.07,97.22 C370.909172,96.218905 370.970626,95.1946829 371.25,94.22 C371.527948,92.980778 371.72503,91.7247956 371.84,90.46 C371.936457,89.376175 371.97318,88.2878619 371.95,87.2 C371.95,86.2 371.6,85.66 370.95,85.53 C369.478092,85.2248688 367.952396,85.304081 366.52,85.76 C364.942008,86.2323764 363.43754,86.9223449 362.05,87.81 C360.703113,88.6553783 359.489778,89.6968244 358.45,90.9 C357.536884,91.9435796 356.897694,93.1979041 356.59,94.55 L356.59,94.51 Z" id="Shape"></path>
            <path d="M397.75,62.54 C399.396667,63.1066667 401.28,63.7166667 403.4,64.37 C405.45988,64.986793 407.430003,65.8709948 409.26,67 C411.010178,68.0794612 412.434224,69.6141117 413.38,71.44 C414.333333,73.28 414.393333,75.6466667 413.56,78.54 C417.272897,76.7821911 421.184575,75.4794176 425.21,74.66 C429.223093,73.718643 433.418662,73.909036 437.33,75.21 C437.776667,75.3633333 438.443333,75.6333333 439.33,76.02 C440.305272,76.4934834 441.139597,77.2140369 441.75,78.11 C442.571821,79.4278576 442.960009,80.9701171 442.86,82.52 C442.66487,85.1949651 441.933704,87.8033577 440.71,90.19 C438.916667,93.93 437.196667,97.69 435.55,101.47 C434.056667,104.803333 432.536667,108.47 430.99,112.47 C429.443333,116.47 428.046667,120.26 426.8,123.84 C425.610497,127.08911 424.703795,130.434873 424.09,133.84 C423.739969,135.962583 423.502968,138.102266 423.38,140.25 C423.283308,141.49423 423.357328,142.74584 423.6,143.97 C423.812593,144.667494 423.812593,145.412506 423.6,146.11 C423.2,147.17 422.333333,147.466667 421,147 C419.34434,146.384303 417.833024,145.434624 416.56,144.21 C415.001358,142.729952 413.735899,140.969167 412.83,139.02 C411.753972,136.72209 411.119618,134.242341 410.96,131.71 C410.774903,128.701768 411.217614,125.687924 412.26,122.86 L418.94,103.56 C420.6,98.7733333 421.766667,95.1566667 422.44,92.71 C422.929166,91.1498751 423.264103,89.5455255 423.44,87.92 C423.44,87.1666667 423.22,86.7133333 422.78,86.56 C421.564926,86.3535979 420.315707,86.535557 419.21,87.08 C417.576667,87.6866667 415.853333,88.43 414.04,89.31 C412.226667,90.19 410.436667,91.12 408.67,92.1 C406.903333,93.08 405.593333,93.84 404.74,94.38 C402.233333,98.7066667 399.916667,102.973333 397.79,107.18 C396.349614,109.887259 395.05119,112.667691 393.9,115.51 C393.597198,116.460972 393.386233,117.438775 393.27,118.43 C393.10522,119.622398 393.246306,120.837114 393.68,121.96 C391.841318,122.300038 389.944356,122.123496 388.2,121.45 C386.543449,120.803228 385.043546,119.811247 383.8,118.54 C382.53189,117.214639 381.71018,115.525762 381.45,113.71 C381.144522,111.593258 381.457051,109.433336 382.35,107.49 C383.323333,105.15 384.786667,101.886667 386.74,97.7 C388.693333,93.5133333 390.583333,89.14 392.41,84.58 C394.163892,80.3663764 395.695989,76.0638216 397,71.69 C398.12,67.65 398.37,64.6 397.75,62.54 Z" id="Path"></path>
            <path d="M469.21,90 C470.27,90.3466667 471.246667,90.68 472.14,91 C473.033333,91.32 473.986667,91.7433333 475,92.27 C477.116708,93.3149529 479.126255,94.564221 481,96 C482.186667,93.9333333 483.933333,90.82 486.24,86.66 C488.546667,82.5 490.8,78.1466667 493,73.6 C495.153333,69.0133333 497.013333,64.59 498.58,60.33 C500.146667,56.07 500.703333,52.7733333 500.25,50.44 C503.461892,51.9324654 506.516998,53.7414099 509.37,55.84 C511.850443,57.9804803 513.844958,60.6261955 515.22,63.6 C515.602008,64.7991961 515.791031,66.0514773 515.78,67.31 C515.72,68.5166667 515.573333,69.9 515.34,71.46 C515.032166,73.2401265 514.455583,74.9631318 513.63,76.57 C513.49,76.8566667 512.563333,78.2966667 510.85,80.89 C509.136667,83.4833333 506.95,86.7766667 504.29,90.77 C501.623333,94.77 498.703333,99.1033333 495.53,103.77 C492.356667,108.436667 489.26,113.133333 486.24,117.86 C483.233333,122.526667 480.506667,126.92 478.06,131.04 C475.613333,135.16 473.763333,138.493333 472.51,141.04 C472.23,141.606667 471.413333,143.543333 470.06,146.85 C468.705442,150.150011 467.924219,153.657059 467.75,157.22 C467.693175,157.796847 467.771936,158.378991 467.98,158.92 C468.188458,159.349559 468.231184,159.840906 468.1,160.3 C467.613333,161.293333 466.446667,161.336667 464.6,160.43 C461.805715,159.090362 459.650545,156.705307 458.6,153.79 C457.473724,150.924167 456.906843,147.869117 456.93,144.79 C455.063022,144.426402 453.217009,143.962395 451.4,143.4 C449.388096,142.775525 447.428668,141.993091 445.54,141.06 C438.713333,137.726667 434.38,133.176667 432.54,127.41 C430.7,121.643333 431.446667,115.353333 434.78,108.54 C436.447024,105.134708 438.644405,102.015844 441.29,99.3 C443.82628,96.6554103 446.721183,94.3798818 449.89,92.54 C452.841427,90.8208216 456.092253,89.677264 459.47,89.17 C462.737063,88.6863739 466.071874,88.9705518 469.21,90 Z M459.26,134.58 C459.167964,134.738133 459.01689,134.853238 458.84,134.9 C459.59429,133.495311 460.435942,132.139316 461.36,130.84 C462.333333,129.2 463.666667,126.94 465.36,124.06 C467.053333,121.18 469.253333,117.32 471.96,112.48 C472.44,110.426667 472.146667,108.96 471.08,108.08 C470.32117,107.420915 469.496875,106.841228 468.62,106.35 C466.022318,104.926108 463.061187,104.303261 460.11,104.56 C457.678633,104.854455 455.364195,105.770586 453.39,107.22 C451.498241,108.595833 449.857591,110.287225 448.54,112.22 C447.428661,113.817282 446.426384,115.487744 445.54,117.22 C443.1,122.2 442.456667,125.94 443.61,128.44 C444.624389,130.802795 446.446379,132.727582 448.75,133.87 C450.370487,134.73154 452.085224,135.40267 453.86,135.87 C454.840197,136.114255 455.851167,136.211983 456.86,136.16 C457.465368,136.139423 458.044906,135.909728 458.5,135.51 C458.803039,135.237707 459.062701,134.920717 459.27,134.57 L459.26,134.58 Z" id="Shape"></path>
        </g>
    </g>
</svg>